; NON-PLATED HOLES START AT T1
; THROUGH (PLATED) HOLES START AT T100
M48
INCH
T100C0.031497
T101C0.061111
T102C0.038000
T103C0.040000
T104C0.069562
T105C0.059055
T106C0.033944
T107C0.042000
T108C0.035000
T109C0.015748
T110C0.055118
%
T100
X009876Y012029
X001876Y013014
X001876Y006029
X028876Y024014
X001876Y010014
X028876Y030014
X001876Y016014
X001876Y015029
X001876Y012029
X028876Y030998
X009876Y015029
X001876Y009029
X009876Y013014
X009876Y016014
X028876Y024998
X001876Y007014
T101
X009876Y003014
X000990Y003014
T102
X014876Y006014
X011876Y006014
X012876Y010014
X013876Y006014
X015876Y006014
X012876Y009014
X011876Y007014
T103
X002376Y031014
X003376Y031014
X000876Y022014
X006876Y019014
X023876Y023014
X006876Y022014
X022876Y023014
X006876Y026014
X000876Y027014
X025876Y023014
X004376Y031014
X006876Y029014
X006876Y025014
X006876Y024014
X006876Y020014
X006876Y027014
X000876Y024014
X000876Y030014
X006876Y030014
X005376Y031014
X021876Y023014
X006876Y028014
X000876Y029014
X005726Y025564
X000876Y023014
X020876Y023014
X006376Y031014
X005726Y026564
X000876Y021014
X006876Y023014
X001376Y031014
X000876Y028014
X000876Y025014
X000876Y020014
X024876Y023014
X000876Y019014
X006876Y021014
X000876Y026014
T104
X032876Y019077
X032876Y023014
X032876Y009014
X032876Y005077
T105
X031876Y029014
X031876Y030392
X031876Y027636
T106
X013876Y023014
X011876Y023014
X011876Y022014
X012876Y022014
X013876Y022014
X014876Y023014
X014876Y022014
X012876Y023014
T107
X019876Y002014
X019876Y003014
X024876Y003014
X024876Y004014
X021876Y016014
X024876Y009014
X018876Y016014
X025876Y016014
X019876Y004014
X019876Y008014
X019876Y009014
X024876Y008014
X024876Y010014
X024876Y002014
X028876Y016014
X019876Y010014
T108
X009876Y026014
X009876Y018014
X013876Y019014
X030876Y013014
X009876Y027014
X018876Y030014
X009876Y010014
X017876Y020014
X021876Y020014
X018291Y012599
X014876Y019014
X009876Y025014
X009876Y019014
X009876Y008014
X015462Y015428
X030876Y017014
X012876Y019014
X018876Y026014
X009876Y009014
X009876Y020014
X028876Y020014
X024876Y020014
T109
X028680Y012623
X021240Y020783
X020760Y013343
X022200Y007343
X004919Y022463
X026280Y007823
X011400Y010943
X018600Y017423
X011160Y013103
X027480Y007583
X005399Y012863
X028440Y010223
X007799Y029423
X022200Y014543
X031320Y011903
X012840Y010943
X011640Y016223
X005399Y024383
X003239Y015983
X027480Y018143
X002279Y024383
X021480Y021503
X019800Y027503
X000599Y004943
X017160Y021743
X006119Y010223
X002759Y022463
X020280Y014063
T110
X012121Y003014
X014876Y003014
T00
M30
