G04 MADE WITH FRITZING*
G04 WWW.FRITZING.ORG*
G04 DOUBLE SIDED*
G04 HOLES PLATED*
G04 CONTOUR ON CENTER OF CONTOUR VECTOR*
%ASAXBY*%
%FSLAX23Y23*%
%MOIN*%
%OFA0B0*%
%SFA1.0B1.0*%
%ADD10C,0.049370*%
%ADD11C,0.088000*%
%ADD12C,0.072992*%
%ADD13C,0.085000*%
%ADD14C,0.084000*%
%ADD15C,0.074000*%
%ADD16C,0.095437*%
%ADD17C,0.092000*%
%ADD18C,0.100000*%
%ADD19C,0.077278*%
%ADD20C,0.148890*%
%ADD21C,0.109055*%
%ADD22R,0.088000X0.088000*%
%ADD23R,0.072992X0.072992*%
%ADD24R,0.092000X0.092000*%
%ADD25R,0.109055X0.109055*%
%ADD26R,0.058000X0.098000*%
%ADD27R,0.151732X0.096614*%
%LNMASK0*%
G90*
G70*
G54D10*
X2220Y1454D03*
X1860Y1742D03*
X540Y2438D03*
X492Y2246D03*
X324Y1598D03*
X228Y2438D03*
X276Y2246D03*
X1116Y1310D03*
X1164Y1622D03*
X2124Y2078D03*
X1284Y1094D03*
X1140Y1094D03*
X2220Y734D03*
X612Y1022D03*
X540Y1286D03*
X2028Y1406D03*
X2748Y1814D03*
X2628Y782D03*
X1716Y2174D03*
X2148Y2150D03*
X2748Y758D03*
X60Y494D03*
X780Y2942D03*
X2844Y1022D03*
X2868Y1262D03*
X2076Y1334D03*
X1980Y2750D03*
X3132Y1190D03*
G54D11*
X1288Y1001D03*
X1288Y901D03*
G54D12*
X2888Y2401D03*
X2888Y2500D03*
X2888Y3001D03*
X2888Y3100D03*
G54D13*
X1888Y3001D03*
X1888Y2601D03*
G54D14*
X638Y3101D03*
X538Y3101D03*
X438Y3101D03*
X338Y3101D03*
X238Y3101D03*
X138Y3101D03*
X688Y3001D03*
X688Y2901D03*
X688Y2801D03*
X688Y2701D03*
X688Y2601D03*
X573Y2656D03*
X573Y2556D03*
X688Y2501D03*
X688Y2401D03*
X688Y2301D03*
X688Y2201D03*
X688Y2101D03*
X688Y2001D03*
X688Y1901D03*
X88Y1901D03*
X88Y2001D03*
X88Y2101D03*
X88Y2201D03*
X88Y2301D03*
X88Y2401D03*
X88Y2501D03*
X88Y2601D03*
X88Y2701D03*
X88Y2801D03*
X88Y2901D03*
X88Y3001D03*
G54D15*
X2588Y2301D03*
X2488Y2301D03*
X2388Y2301D03*
X2288Y2301D03*
X2188Y2301D03*
X2088Y2301D03*
G54D16*
X3288Y508D03*
X3288Y901D03*
X3288Y508D03*
X3288Y901D03*
X3288Y1908D03*
X3288Y2301D03*
X3288Y1908D03*
X3288Y2301D03*
G54D17*
X1988Y401D03*
X1988Y301D03*
X1988Y201D03*
X1988Y1001D03*
X1988Y901D03*
X1988Y801D03*
X2488Y401D03*
X2488Y301D03*
X2488Y201D03*
X2488Y1001D03*
X2488Y901D03*
X2488Y801D03*
G54D13*
X1788Y2001D03*
X2188Y2001D03*
X3088Y1701D03*
X3088Y1301D03*
X2488Y2001D03*
X2888Y2001D03*
X1546Y1543D03*
X1829Y1260D03*
G54D17*
X1888Y1601D03*
X2188Y1601D03*
X2588Y1601D03*
X2888Y1601D03*
G54D18*
X1488Y301D03*
X1212Y301D03*
G54D19*
X1188Y2301D03*
X1288Y2301D03*
X1388Y2301D03*
X1488Y2301D03*
X1188Y2201D03*
X1288Y2201D03*
X1388Y2201D03*
X1488Y2201D03*
G54D20*
X99Y301D03*
X988Y301D03*
G54D11*
X1588Y601D03*
X1488Y601D03*
X1388Y601D03*
X1188Y701D03*
X1188Y601D03*
G54D13*
X1288Y1901D03*
X1388Y1901D03*
X1488Y1901D03*
G54D12*
X188Y903D03*
X188Y1001D03*
X188Y603D03*
X188Y701D03*
X188Y1503D03*
X188Y1601D03*
X188Y1203D03*
X188Y1301D03*
G54D13*
X988Y1001D03*
X988Y901D03*
X988Y801D03*
G54D12*
X988Y1503D03*
X988Y1601D03*
X988Y1203D03*
X988Y1301D03*
G54D13*
X988Y2001D03*
X988Y1901D03*
X988Y1801D03*
X988Y2701D03*
X988Y2601D03*
X988Y2501D03*
G54D21*
X3188Y3039D03*
X3188Y2901D03*
X3188Y2764D03*
G54D22*
X1288Y1001D03*
G54D23*
X2888Y2401D03*
X2888Y3001D03*
G54D24*
X1988Y401D03*
X1988Y1001D03*
X2488Y401D03*
X2488Y1001D03*
X1888Y1601D03*
X2588Y1601D03*
G54D22*
X1588Y601D03*
X1188Y701D03*
G54D23*
X188Y903D03*
X188Y603D03*
X188Y1503D03*
X188Y1203D03*
X988Y1503D03*
X988Y1203D03*
G54D25*
X3188Y3039D03*
G54D26*
X488Y2101D03*
X397Y2101D03*
X306Y2101D03*
G54D27*
X397Y2345D03*
G04 End of Mask0*
M02*