; NON-PLATED HOLES START AT T1
; THROUGH (PLATED) HOLES START AT T100
M48
INCH
T100C0.035000
T101C0.118110
T102C0.028000
T103C0.031497
T104C0.033944
T105C0.042000
T106C0.032778
T107C0.040000
T108C0.038000
T109C0.015748
%
T100
X031389Y014388
X027389Y014388
T101
X028389Y009388
X008389Y016388
X004389Y009388
X016389Y003388
T102
X018389Y009388
X015389Y009388
X016389Y009388
X017393Y009389
T103
X001389Y020388
X006389Y021372
X006389Y020388
X001389Y021372
T104
X002389Y016388
X001389Y016388
X001389Y017388
X002389Y017388
X002389Y015388
X001389Y018388
X001389Y015388
X002389Y018388
T105
X027389Y018388
X030389Y018388
T106
X025389Y013388
X025389Y018388
T107
X022389Y016888
X016389Y011388
X028389Y001388
X014389Y017388
X027389Y001388
X020389Y017388
X015389Y017388
X010389Y017388
X026389Y001388
X017389Y017388
X022389Y013888
X012389Y017388
X011389Y017388
X007389Y001388
X022389Y014888
X016939Y012538
X018389Y017388
X022389Y015888
X012389Y011388
X013389Y011388
X029389Y001388
X003389Y001388
X010389Y011388
X019389Y011388
X022389Y012888
X015389Y011388
X020389Y011388
X006389Y001388
X016389Y017388
X017939Y012538
X013389Y017388
X017389Y011388
X018389Y011388
X005389Y001388
X021389Y011388
X021389Y017388
X011389Y011388
X025389Y001388
X022389Y011888
X004389Y001388
X019389Y017388
X014389Y011388
T108
X020389Y018388
X016389Y019388
X016389Y020388
X020389Y020388
X020389Y019388
T109
X016680Y007591
X012360Y008551
X008280Y003751
X007800Y020071
X015480Y012871
X026520Y011911
X011400Y000631
X023160Y009751
X013800Y020311
X008040Y013351
X018840Y010231
X011640Y002551
X010680Y008551
X014280Y007111
X021960Y020551
X020520Y009271
X010680Y007111
X010680Y013351
X017160Y018631
X013320Y021031
T00
M30
