G04 MADE WITH FRITZING*
G04 WWW.FRITZING.ORG*
G04 DOUBLE SIDED*
G04 HOLES PLATED*
G04 CONTOUR ON CENTER OF CONTOUR VECTOR*
%ASAXBY*%
%FSLAX23Y23*%
%MOIN*%
%OFA0B0*%
%SFA1.0B1.0*%
%ADD10C,0.196851*%
%ADD11C,0.067278*%
%ADD12C,0.074000*%
%ADD13C,0.077222*%
%ADD14C,0.064000*%
%ADD15C,0.078000*%
%ADD16C,0.060000*%
%ADD17C,0.062992*%
%ADD18C,0.075000*%
%ADD19C,0.082000*%
%ADD20C,0.039370*%
%ADD21R,0.077222X0.077222*%
%ADD22R,0.078000X0.078000*%
%ADD23R,0.062992X0.062992*%
%ADD24R,0.082000X0.082000*%
%ADD25C,0.024000*%
%LNCOPPER0*%
G90*
G70*
G54D10*
X1639Y339D03*
X839Y1639D03*
X2839Y939D03*
X439Y939D03*
G54D11*
X239Y1839D03*
X239Y1739D03*
X239Y1639D03*
X239Y1539D03*
X139Y1839D03*
X139Y1739D03*
X139Y1639D03*
X139Y1539D03*
G54D12*
X2239Y1189D03*
X2239Y1289D03*
X2239Y1389D03*
X2239Y1489D03*
X2239Y1589D03*
X2239Y1689D03*
X2139Y1139D03*
X2039Y1139D03*
X1939Y1139D03*
X1839Y1139D03*
X1739Y1139D03*
X1794Y1254D03*
X1694Y1254D03*
X1639Y1139D03*
X1539Y1139D03*
X1439Y1139D03*
X1339Y1139D03*
X1239Y1139D03*
X1139Y1139D03*
X1039Y1139D03*
X1039Y1739D03*
X1139Y1739D03*
X1239Y1739D03*
X1339Y1739D03*
X1439Y1739D03*
X1539Y1739D03*
X1639Y1739D03*
X1739Y1739D03*
X1839Y1739D03*
X1939Y1739D03*
X2039Y1739D03*
X2139Y1739D03*
G54D13*
X2539Y1839D03*
X2539Y1339D03*
X2539Y1839D03*
X2539Y1339D03*
G54D14*
X639Y139D03*
X539Y139D03*
X439Y139D03*
X339Y139D03*
X739Y139D03*
X2839Y139D03*
X2739Y139D03*
X2639Y139D03*
X2539Y139D03*
X2939Y139D03*
G54D15*
X1639Y2039D03*
X1639Y1939D03*
G54D16*
X1839Y939D03*
X1739Y939D03*
X1639Y939D03*
X1539Y939D03*
G54D15*
X2039Y2039D03*
X2039Y1939D03*
X2039Y1839D03*
G54D17*
X139Y2039D03*
X139Y2137D03*
G54D18*
X2739Y1439D03*
X3139Y1439D03*
G54D17*
X639Y2039D03*
X639Y2137D03*
G54D19*
X2739Y1839D03*
X3039Y1839D03*
G54D20*
X1548Y1287D03*
X1884Y1023D03*
X1668Y759D03*
X828Y375D03*
X1236Y855D03*
X1068Y711D03*
X1068Y1335D03*
X804Y1335D03*
X1428Y711D03*
X1380Y2031D03*
X1068Y855D03*
X1716Y1863D03*
X1332Y2103D03*
X2316Y975D03*
X1140Y63D03*
X1164Y255D03*
X2052Y927D03*
X2196Y2055D03*
X2652Y1191D03*
X780Y2007D03*
G54D21*
X2539Y1339D03*
X2539Y1339D03*
G54D22*
X1639Y2039D03*
X2039Y2039D03*
G54D23*
X139Y2039D03*
X639Y2039D03*
G54D24*
X2739Y1839D03*
G54D25*
X1009Y1746D02*
X300Y1911D01*
X300Y1911D02*
X108Y1911D01*
X108Y1911D02*
X84Y1887D01*
X84Y1887D02*
X84Y1791D01*
X84Y1791D02*
X119Y1758D01*
D02*
X2715Y1455D02*
X2172Y1815D01*
D02*
X2172Y1815D02*
X2069Y1834D01*
D02*
X1739Y964D02*
X1740Y1071D01*
D02*
X1740Y1071D02*
X972Y1071D01*
D02*
X972Y1071D02*
X972Y1191D01*
D02*
X972Y1191D02*
X1620Y1215D01*
D02*
X1620Y1215D02*
X1644Y1311D01*
D02*
X1644Y1311D02*
X1764Y1311D01*
D02*
X1764Y1311D02*
X1780Y1281D01*
D02*
X1838Y914D02*
X1836Y879D01*
D02*
X1836Y879D02*
X1500Y879D01*
D02*
X1500Y879D02*
X1476Y975D01*
D02*
X1476Y975D02*
X1500Y1023D01*
D02*
X1500Y1023D02*
X924Y1023D01*
D02*
X924Y1023D02*
X924Y1263D01*
D02*
X924Y1263D02*
X1529Y1286D01*
D02*
X1888Y1005D02*
X1908Y903D01*
D02*
X1908Y903D02*
X1884Y831D01*
D02*
X1884Y831D02*
X1404Y819D01*
D02*
X1404Y819D02*
X828Y243D01*
D02*
X828Y243D02*
X468Y207D01*
D02*
X468Y207D02*
X451Y167D01*
D02*
X1687Y761D02*
X1932Y783D01*
D02*
X1932Y783D02*
X1956Y855D01*
D02*
X1956Y855D02*
X1956Y1047D01*
D02*
X1956Y1047D02*
X1863Y1120D01*
D02*
X3015Y1818D02*
X2796Y1623D01*
D02*
X2796Y1623D02*
X2796Y1383D01*
D02*
X2796Y1383D02*
X2772Y1371D01*
D02*
X2772Y1371D02*
X2269Y1482D01*
D02*
X2518Y162D02*
X1932Y783D01*
D02*
X842Y388D02*
X1176Y687D01*
D02*
X1176Y687D02*
X1230Y837D01*
D02*
X1077Y728D02*
X1188Y927D01*
D02*
X1188Y927D02*
X876Y975D01*
D02*
X876Y975D02*
X876Y1335D01*
D02*
X876Y1335D02*
X1049Y1335D01*
D02*
X789Y1346D02*
X262Y1723D01*
D02*
X651Y110D02*
X660Y87D01*
D02*
X660Y87D02*
X804Y87D01*
D02*
X804Y87D02*
X1380Y711D01*
D02*
X1380Y711D02*
X1409Y711D01*
D02*
X1380Y2012D02*
X1380Y1887D01*
D02*
X1380Y1887D02*
X1516Y1760D01*
D02*
X2825Y167D02*
X2292Y1251D01*
D02*
X2292Y1251D02*
X2604Y1263D01*
D02*
X2604Y1263D02*
X2844Y1335D01*
D02*
X2844Y1335D02*
X2844Y1575D01*
D02*
X2844Y1575D02*
X3108Y1791D01*
D02*
X3108Y1791D02*
X3108Y1911D01*
D02*
X3108Y1911D02*
X2100Y1935D01*
D02*
X2100Y1935D02*
X2100Y2103D01*
D02*
X2100Y2103D02*
X1980Y2103D01*
D02*
X1980Y2103D02*
X1756Y1765D01*
D02*
X2632Y108D02*
X2628Y87D01*
D02*
X2628Y87D02*
X2484Y87D01*
D02*
X2484Y87D02*
X1428Y651D01*
D02*
X1428Y651D02*
X1068Y303D01*
D02*
X1068Y303D02*
X1068Y39D01*
D02*
X1068Y39D02*
X612Y39D01*
D02*
X612Y39D02*
X276Y87D01*
D02*
X276Y87D02*
X276Y207D01*
D02*
X276Y207D02*
X1053Y843D01*
D02*
X1697Y1863D02*
X1596Y1863D01*
D02*
X1596Y1863D02*
X1428Y2079D01*
D02*
X1428Y2079D02*
X1350Y2099D01*
D02*
X2299Y983D02*
X2052Y1095D01*
D02*
X2052Y1095D02*
X2048Y1109D01*
D02*
X1142Y82D02*
X1162Y236D01*
D02*
X2051Y946D02*
X2041Y1108D01*
D02*
X136Y2012D02*
X132Y1983D01*
X132Y1983D02*
X708Y1983D01*
D02*
X708Y1983D02*
X708Y2127D01*
D02*
X708Y2127D02*
X1188Y2151D01*
D02*
X1188Y2151D02*
X2148Y2151D01*
D02*
X2148Y2151D02*
X2188Y2072D01*
D02*
X2669Y1200D02*
X3113Y1426D01*
D02*
X1413Y1757D02*
X1092Y1983D01*
D02*
X1092Y1983D02*
X799Y2006D01*
G04 End of Copper0*
M02*