G04 MADE WITH FRITZING*
G04 WWW.FRITZING.ORG*
G04 DOUBLE SIDED*
G04 HOLES PLATED*
G04 CONTOUR ON CENTER OF CONTOUR VECTOR*
%ASAXBY*%
%FSLAX23Y23*%
%MOIN*%
%OFA0B0*%
%SFA1.0B1.0*%
%ADD10C,0.196851*%
%ADD11C,0.067278*%
%ADD12C,0.074000*%
%ADD13C,0.077222*%
%ADD14C,0.064000*%
%ADD15C,0.078000*%
%ADD16C,0.060000*%
%ADD17C,0.062992*%
%ADD18C,0.075000*%
%ADD19C,0.082000*%
%ADD20C,0.039370*%
%ADD21R,0.077222X0.077222*%
%ADD22R,0.078000X0.078000*%
%ADD23R,0.088000X0.048000*%
%ADD24R,0.086614X0.141732*%
%ADD25R,0.062992X0.062992*%
%ADD26R,0.082000X0.082000*%
%ADD27C,0.024000*%
%LNCOPPER1*%
G90*
G70*
G54D10*
X1639Y339D03*
X839Y1639D03*
X2839Y939D03*
X439Y939D03*
G54D11*
X239Y1839D03*
X239Y1739D03*
X239Y1639D03*
X239Y1539D03*
X139Y1839D03*
X139Y1739D03*
X139Y1639D03*
X139Y1539D03*
G54D12*
X2239Y1189D03*
X2239Y1289D03*
X2239Y1389D03*
X2239Y1489D03*
X2239Y1589D03*
X2239Y1689D03*
X2139Y1139D03*
X2039Y1139D03*
X1939Y1139D03*
X1839Y1139D03*
X1739Y1139D03*
X1794Y1254D03*
X1694Y1254D03*
X1639Y1139D03*
X1539Y1139D03*
X1439Y1139D03*
X1339Y1139D03*
X1239Y1139D03*
X1139Y1139D03*
X1039Y1139D03*
X1039Y1739D03*
X1139Y1739D03*
X1239Y1739D03*
X1339Y1739D03*
X1439Y1739D03*
X1539Y1739D03*
X1639Y1739D03*
X1739Y1739D03*
X1839Y1739D03*
X1939Y1739D03*
X2039Y1739D03*
X2139Y1739D03*
G54D13*
X2539Y1839D03*
X2539Y1339D03*
X2539Y1839D03*
X2539Y1339D03*
G54D14*
X639Y139D03*
X539Y139D03*
X439Y139D03*
X339Y139D03*
X739Y139D03*
X2839Y139D03*
X2739Y139D03*
X2639Y139D03*
X2539Y139D03*
X2939Y139D03*
G54D15*
X1639Y2039D03*
X1639Y1939D03*
G54D16*
X1839Y939D03*
X1739Y939D03*
X1639Y939D03*
X1539Y939D03*
G54D15*
X2039Y2039D03*
X2039Y1939D03*
X2039Y1839D03*
G54D17*
X139Y2039D03*
X139Y2137D03*
G54D18*
X2739Y1439D03*
X3139Y1439D03*
G54D17*
X639Y2039D03*
X639Y2137D03*
G54D19*
X2739Y1839D03*
X3039Y1839D03*
G54D20*
X1548Y1287D03*
X1884Y1023D03*
X1668Y759D03*
X828Y375D03*
X1236Y855D03*
X1068Y711D03*
X1068Y1335D03*
X804Y1335D03*
X1428Y711D03*
X1380Y2031D03*
X1068Y855D03*
X1716Y1863D03*
X1332Y2103D03*
X2316Y975D03*
X1140Y63D03*
X1164Y255D03*
X2052Y927D03*
X2196Y2055D03*
X2652Y1191D03*
X780Y2007D03*
G54D21*
X2539Y1339D03*
X2539Y1339D03*
G54D22*
X1639Y2039D03*
G54D23*
X1239Y2030D03*
X1239Y1939D03*
X1239Y1848D03*
G54D24*
X1483Y1939D03*
G54D22*
X2039Y2039D03*
G54D25*
X139Y2039D03*
X639Y2039D03*
G54D26*
X2739Y1839D03*
G54D27*
X1639Y1909D02*
X1639Y1770D01*
D02*
X2512Y1844D02*
X2068Y1933D01*
D02*
X1117Y1161D02*
X684Y1599D01*
D02*
X684Y1599D02*
X267Y1636D01*
D02*
X1277Y1847D02*
X1548Y1839D01*
D02*
X1548Y1839D02*
X1572Y2103D01*
D02*
X1572Y2103D02*
X1716Y2103D01*
D02*
X1716Y2103D02*
X2016Y1858D01*
D02*
X1567Y1283D02*
X1664Y1261D01*
D02*
X1763Y1119D02*
X1869Y1035D01*
D02*
X1541Y914D02*
X1548Y807D01*
D02*
X1548Y807D02*
X1650Y766D01*
D02*
X1200Y1923D02*
X996Y1839D01*
D02*
X996Y1839D02*
X972Y1695D01*
D02*
X972Y1695D02*
X996Y1683D01*
D02*
X996Y1683D02*
X2208Y1494D01*
D02*
X267Y1839D02*
X996Y1839D01*
D02*
X361Y161D02*
X996Y783D01*
D02*
X996Y783D02*
X1548Y807D01*
D02*
X2718Y162D02*
X2676Y207D01*
D02*
X2676Y207D02*
X2508Y207D01*
D02*
X2508Y207D02*
X1500Y63D01*
D02*
X1500Y63D02*
X900Y291D01*
D02*
X900Y291D02*
X840Y361D01*
D02*
X1255Y859D02*
X1476Y903D01*
D02*
X1476Y903D02*
X1531Y1109D01*
D02*
X560Y162D02*
X1055Y697D01*
D02*
X1086Y1330D02*
X1620Y1179D01*
D02*
X1620Y1179D02*
X1626Y1167D01*
D02*
X1015Y1159D02*
X819Y1323D01*
D02*
X2709Y1827D02*
X2460Y1731D01*
D02*
X2460Y1731D02*
X2328Y1599D01*
D02*
X2328Y1599D02*
X2292Y1095D01*
D02*
X2292Y1095D02*
X1932Y1047D01*
D02*
X1932Y1047D02*
X1908Y879D01*
D02*
X1908Y879D02*
X1692Y879D01*
D02*
X1692Y879D02*
X1656Y920D01*
D02*
X1447Y711D02*
X1716Y711D01*
D02*
X1716Y711D02*
X1716Y831D01*
D02*
X1716Y831D02*
X1956Y831D01*
D02*
X1956Y831D02*
X1980Y999D01*
D02*
X1980Y999D02*
X2364Y1071D01*
D02*
X2364Y1071D02*
X2376Y1551D01*
D02*
X2376Y1551D02*
X2508Y1683D01*
D02*
X2508Y1683D02*
X2820Y1767D01*
D02*
X2820Y1767D02*
X2820Y1935D01*
D02*
X2820Y1935D02*
X2100Y1983D01*
D02*
X2100Y1983D02*
X2100Y2127D01*
D02*
X2100Y2127D02*
X1524Y2151D01*
D02*
X1524Y2151D02*
X1395Y2043D01*
D02*
X148Y1512D02*
X156Y1491D01*
X156Y1491D02*
X756Y1407D01*
D02*
X756Y1407D02*
X732Y1071D01*
D02*
X732Y1071D02*
X1188Y1071D01*
D02*
X1188Y1071D02*
X1220Y1114D01*
D02*
X1326Y1111D02*
X1284Y1023D01*
D02*
X1284Y1023D02*
X684Y1023D01*
D02*
X684Y1023D02*
X84Y1479D01*
X84Y1479D02*
X84Y1599D01*
X84Y1599D02*
X116Y1622D01*
D02*
X1085Y864D02*
X1464Y1071D01*
D02*
X1464Y1071D02*
X1450Y1110D01*
D02*
X129Y1865D02*
X84Y1983D01*
X84Y1983D02*
X84Y2103D01*
X84Y2103D02*
X116Y2123D01*
D02*
X612Y2137D02*
X166Y2137D01*
D02*
X1200Y2037D02*
X665Y2133D01*
D02*
X1817Y1761D02*
X1729Y1850D01*
D02*
X1317Y2091D02*
X1262Y2048D01*
D02*
X2519Y1357D02*
X2412Y1455D01*
D02*
X2412Y1455D02*
X2412Y999D01*
D02*
X2412Y999D02*
X2334Y980D01*
D02*
X2923Y165D02*
X2412Y999D01*
D02*
X769Y133D02*
X1121Y67D01*
D02*
X1180Y265D02*
X2004Y783D01*
D02*
X2004Y783D02*
X2046Y909D01*
D02*
X2215Y2054D02*
X2868Y2007D01*
D02*
X2868Y2007D02*
X2868Y1719D01*
D02*
X2868Y1719D02*
X2700Y1695D01*
D02*
X2700Y1695D02*
X2654Y1210D01*
D02*
X761Y2011D02*
X665Y2033D01*
G04 End of Copper1*
M02*